<?xml version="1.0" encoding="utf-8"?>
<svg viewBox="130.999 286.489 719.783 227.963" xmlns="http://www.w3.org/2000/svg">
  <defs>
    <clipPath id="5dc43f503e">
      <path d="M 142.328125 104.609375 L 214 104.609375 L 214 128 L 142.328125 128 Z M 142.328125 104.609375 " clip-rule="nonzero"/>
    </clipPath>
    <clipPath id="4fd57a3be4">
      <path d="M 157 126 L 216.578125 126 L 216.578125 212.609375 L 157 212.609375 Z M 157 126 " clip-rule="nonzero"/>
    </clipPath>
    <clipPath id="645427cb1b">
      <path d="M 196 159 L 276 159 L 276 227 L 196 227 Z M 196 159 " clip-rule="nonzero"/>
    </clipPath>
    <clipPath id="06f1378149">
      <path d="M 233.464844 135.90625 L 318.761719 176.585938 L 273.882812 270.679688 L 188.585938 230 Z M 233.464844 135.90625 " clip-rule="nonzero"/>
    </clipPath>
    <clipPath id="39d5e1dca0">
      <path d="M 233.464844 135.90625 L 318.761719 176.585938 L 273.882812 270.679688 L 188.585938 230 Z M 233.464844 135.90625 " clip-rule="nonzero"/>
    </clipPath>
    <clipPath id="b4c2be75f5">
      <path d="M 194 172 L 292 172 L 292 233 L 194 233 Z M 194 172 " clip-rule="nonzero"/>
    </clipPath>
    <clipPath id="3dbbf40ba8">
      <path d="M 233.464844 135.90625 L 318.761719 176.585938 L 273.882812 270.679688 L 188.585938 230 Z M 233.464844 135.90625 " clip-rule="nonzero"/>
    </clipPath>
    <clipPath id="5d083c89ba">
      <path d="M 233.464844 135.90625 L 318.761719 176.585938 L 273.882812 270.679688 L 188.585938 230 Z M 233.464844 135.90625 " clip-rule="nonzero"/>
    </clipPath>
    <clipPath id="143a4c48b3">
      <path d="M 199 146 L 260 146 L 260 219 L 199 219 Z M 199 146 " clip-rule="nonzero"/>
    </clipPath>
    <clipPath id="661d317510">
      <path d="M 233.464844 135.90625 L 318.761719 176.585938 L 273.882812 270.679688 L 188.585938 230 Z M 233.464844 135.90625 " clip-rule="nonzero"/>
    </clipPath>
    <clipPath id="8f4b2aa317">
      <path d="M 233.464844 135.90625 L 318.761719 176.585938 L 273.882812 270.679688 L 188.585938 230 Z M 233.464844 135.90625 " clip-rule="nonzero"/>
    </clipPath>
    <clipPath id="7224b5171f">
      <path d="M 98 158 L 179 158 L 179 227 L 98 227 Z M 98 158 " clip-rule="nonzero"/>
    </clipPath>
    <clipPath id="4c669719b1">
      <path d="M 56.273438 176.28125 L 141.742188 135.972656 L 186.210938 230.261719 L 100.742188 270.574219 Z M 56.273438 176.28125 " clip-rule="nonzero"/>
    </clipPath>
    <clipPath id="8c1ee2d1d1">
      <path d="M 141.699219 135.992188 L 56.230469 176.304688 L 100.699219 270.59375 L 186.167969 230.285156 Z M 141.699219 135.992188 " clip-rule="nonzero"/>
    </clipPath>
    <clipPath id="5b1fcb563c">
      <path d="M 82 172 L 181 172 L 181 233 L 82 233 Z M 82 172 " clip-rule="nonzero"/>
    </clipPath>
    <clipPath id="ff209b1847">
      <path d="M 56.273438 176.28125 L 141.742188 135.972656 L 186.210938 230.261719 L 100.742188 270.574219 Z M 56.273438 176.28125 " clip-rule="nonzero"/>
    </clipPath>
    <clipPath id="90419b9278">
      <path d="M 141.699219 135.992188 L 56.230469 176.304688 L 100.699219 270.59375 L 186.167969 230.285156 Z M 141.699219 135.992188 " clip-rule="nonzero"/>
    </clipPath>
    <clipPath id="92a446b44e">
      <path d="M 114 146 L 176 146 L 176 219 L 114 219 Z M 114 146 " clip-rule="nonzero"/>
    </clipPath>
    <clipPath id="5102e3ca6c">
      <path d="M 56.273438 176.28125 L 141.742188 135.972656 L 186.210938 230.261719 L 100.742188 270.574219 Z M 56.273438 176.28125 " clip-rule="nonzero"/>
    </clipPath>
    <clipPath id="8740d4cf85">
      <path d="M 141.699219 135.992188 L 56.230469 176.304688 L 100.699219 270.59375 L 186.167969 230.285156 Z M 141.699219 135.992188 " clip-rule="nonzero"/>
    </clipPath>
    <radialGradient gradientUnits="userSpaceOnUse" cx="5.641" cy="-5.648" r="5.594" id="gradient-14">
      <stop offset="0" style="stop-color: rgb(100% 49.412% 0%)"/>
      <stop offset="1" style="stop-color: rgb(66.119% 22.068% 0%)"/>
    </radialGradient>
    <radialGradient gradientUnits="userSpaceOnUse" cx="2.438" cy="-5.648" r="0.594" id="gradient-15">
      <stop offset="0" style="stop-color: rgb(100% 49.412% 0%)"/>
      <stop offset="1" style="stop-color: rgb(66.119% 22.068% 0%)"/>
    </radialGradient>
    <radialGradient gradientUnits="userSpaceOnUse" cx="6.352" cy="-5.648" r="4.508" id="gradient-16">
      <stop offset="0" style="stop-color: rgb(100% 49.412% 0%)"/>
      <stop offset="1" style="stop-color: rgb(66.119% 22.068% 0%)"/>
    </radialGradient>
    <radialGradient gradientUnits="userSpaceOnUse" cx="4.633" cy="-5.648" r="4.57" id="gradient-17">
      <stop offset="0" style="stop-color: rgb(100% 49.412% 0%)"/>
      <stop offset="1" style="stop-color: rgb(66.119% 22.068% 0%)"/>
    </radialGradient>
    <radialGradient gradientUnits="userSpaceOnUse" cx="6.391" cy="-5.602" r="4.641" id="gradient-18">
      <stop offset="0" style="stop-color: rgb(100% 49.412% 0%)"/>
      <stop offset="1" style="stop-color: rgb(66.119% 22.068% 0%)"/>
    </radialGradient>
    <radialGradient gradientUnits="userSpaceOnUse" cx="5.789" cy="-5.648" r="5.758" id="gradient-19">
      <stop offset="0" style="stop-color: rgb(100% 49.412% 0%)"/>
      <stop offset="1" style="stop-color: rgb(66.119% 22.068% 0%)"/>
    </radialGradient>
    <radialGradient gradientUnits="userSpaceOnUse" cx="5.602" cy="-5.648" r="3.758" id="gradient-20">
      <stop offset="0" style="stop-color: rgb(100% 49.412% 0%)"/>
      <stop offset="1" style="stop-color: rgb(66.119% 22.068% 0%)"/>
    </radialGradient>
    <radialGradient gradientUnits="userSpaceOnUse" cx="4.969" cy="-5.648" r="4.203" id="gradient-21">
      <stop offset="0" style="stop-color: rgb(100% 49.412% 0%)"/>
      <stop offset="1" style="stop-color: rgb(66.119% 22.068% 0%)"/>
    </radialGradient>
    <radialGradient gradientUnits="userSpaceOnUse" cx="6.391" cy="-5.602" r="4.641" id="gradient-22">
      <stop offset="0" style="stop-color: rgb(100% 49.412% 0%)"/>
      <stop offset="1" style="stop-color: rgb(66.119% 22.068% 0%)"/>
    </radialGradient>
    <radialGradient gradientUnits="userSpaceOnUse" cx="6.266" cy="-5.648" r="4.422" id="gradient-23">
      <stop offset="0" style="stop-color: rgb(100% 49.412% 0%)"/>
      <stop offset="1" style="stop-color: rgb(66.119% 22.068% 0%)"/>
    </radialGradient>
    <radialGradient gradientUnits="userSpaceOnUse" cx="6.266" cy="-5.648" r="4.422" id="gradient-24">
      <stop offset="0" style="stop-color: rgb(100% 49.412% 0%)"/>
      <stop offset="1" style="stop-color: rgb(66.119% 22.068% 0%)"/>
    </radialGradient>
    <radialGradient gradientUnits="userSpaceOnUse" cx="6.773" cy="-5.648" r="5.93" id="gradient-25">
      <stop offset="0" style="stop-color: rgb(100% 49.412% 0%)"/>
      <stop offset="1" style="stop-color: rgb(66.119% 22.068% 0%)"/>
    </radialGradient>
    <radialGradient gradientUnits="userSpaceOnUse" cx="6.352" cy="-5.648" r="4.508" id="gradient-26">
      <stop offset="0" style="stop-color: rgb(100% 49.412% 0%)"/>
      <stop offset="1" style="stop-color: rgb(66.119% 22.068% 0%)"/>
    </radialGradient>
    <radialGradient gradientUnits="userSpaceOnUse" cx="4.633" cy="-5.648" r="4.57" id="gradient-27">
      <stop offset="0" style="stop-color: rgb(100% 49.412% 0%)"/>
      <stop offset="1" style="stop-color: rgb(66.119% 22.068% 0%)"/>
    </radialGradient>
  </defs>
  <g clip-path="url(#5dc43f503e)" transform="matrix(1.6549780368804932, 0, 0, 1.7649729251861572, -1.5873999832183188, 101.8144699009429)" style="">
    <path d="M 213.503906 116.730469 C 213.429688 117.910156 212.605469 118.910156 211.492188 119.3125 L 188.195312 127.753906 C 187.875 127.867188 187.535156 127.925781 187.199219 127.925781 C 186.863281 127.925781 186.523438 127.867188 186.203125 127.753906 L 164.523438 119.902344 C 163.839844 119.652344 163.503906 118.863281 163.824219 118.191406 C 164.105469 117.601562 164.8125 117.351562 165.425781 117.574219 L 187.050781 125.40625 C 187.148438 125.441406 187.25 125.441406 187.34375 125.40625 L 210.730469 116.933594 C 210.960938 116.851562 211.011719 116.671875 211.011719 116.535156 C 211.015625 116.421875 210.980469 116.222656 210.738281 116.132812 L 187.351562 107.199219 C 187.253906 107.164062 187.144531 107.164062 187.046875 107.199219 L 170.875 113.375 C 171.449219 113.582031 172.039062 113.804688 172.640625 114.046875 C 181.222656 117.5 187.101562 114.597656 189.214844 113.203125 C 189.421875 113.066406 189.660156 113 189.894531 113 C 190.242188 113 190.582031 113.144531 190.828125 113.417969 C 191.332031 113.988281 191.210938 114.871094 190.574219 115.289062 C 188 116.976562 181.289062 120.21875 171.710938 116.363281 C 158.292969 110.960938 153.019531 115.59375 151.34375 117.902344 L 152.878906 118.832031 L 149.109375 124.90625 C 148.15625 126.441406 146.160156 126.957031 144.582031 126.070312 C 142.914062 125.128906 142.359375 122.992188 143.359375 121.363281 L 147.066406 115.3125 L 149.234375 116.625 C 151.039062 114.128906 156.003906 109.542969 166.957031 112.203125 L 186.15625 104.871094 C 186.828125 104.613281 187.570312 104.613281 188.242188 104.871094 L 211.628906 113.800781 C 212.835938 114.261719 213.589844 115.421875 213.503906 116.730469 Z M 213.503906 116.730469 " fill-opacity="1" fill-rule="nonzero" style="fill: rgb(255, 126, 0);"/>
  </g>
  <g clip-path="url(#4fd57a3be4)" transform="matrix(1.6549780368804932, 0, 0, 1.7649729251861572, -1.5873999832183188, 101.8144699009429)" style="">
    <path d="M 198.40625 126.914062 L 188.195312 130.613281 C 187.875 130.730469 187.535156 130.789062 187.199219 130.789062 C 186.863281 130.789062 186.523438 130.730469 186.203125 130.613281 L 175.632812 126.785156 C 170.871094 143.253906 157.832031 156.554688 157.832031 156.554688 C 161.59375 160.96875 165.28125 166.609375 168.738281 172.886719 L 179.207031 195.472656 C 181.160156 200.484375 184.289062 208.167969 185.734375 212.871094 L 185.410156 188.910156 C 185.570312 185.359375 185.578125 167.46875 185.488281 159.621094 C 184.347656 159.039062 183.566406 157.859375 183.566406 156.492188 C 183.566406 154.578125 185.097656 153.027344 187 152.988281 C 188.90625 153.027344 190.4375 154.578125 190.4375 156.492188 C 190.4375 157.859375 189.652344 159.039062 188.511719 159.621094 C 188.421875 167.46875 188.429688 185.359375 188.589844 188.910156 L 188.265625 212.871094 C 189.714844 208.167969 192.839844 200.480469 194.792969 195.472656 L 205.265625 172.886719 C 208.71875 166.609375 212.410156 160.96875 216.171875 156.554688 C 216.171875 156.554688 203.199219 143.324219 198.40625 126.914062 Z M 198.40625 126.914062 " fill-opacity="1" fill-rule="nonzero" style="fill: rgb(255, 126, 0);"/>
  </g>
  <g clip-path="url(#645427cb1b)" transform="matrix(1.6549780368804932, 0, 0, 1.7649729251861572, -1.5873999832183188, 101.8144699009429)" style="">
    <g clip-path="url(#06f1378149)">
      <g clip-path="url(#39d5e1dca0)">
        <path d="M 275.863281 218.964844 L 270.722656 159.0625 C 270.722656 159.0625 264.710938 159.789062 257.59375 162 L 258.109375 168 C 260.027344 167.90625 262.054688 167.949219 264.179688 168.179688 L 268.609375 211.585938 C 268.609375 211.585938 219.402344 205.917969 196.667969 226.074219 C 196.667969 226.074219 225.078125 209.023438 275.863281 218.964844 " fill-opacity="1" fill-rule="nonzero" style="fill: rgb(255, 126, 0);"/>
      </g>
    </g>
  </g>
  <g clip-path="url(#b4c2be75f5)" transform="matrix(1.6549780368804932, 0, 0, 1.7649729251861572, -1.5873999832183188, 101.8144699009429)" style="">
    <g clip-path="url(#3dbbf40ba8)">
      <g clip-path="url(#5d083c89ba)">
        <path d="M 286.75 172.859375 C 286.75 172.859375 280.738281 173.582031 273.625 175.796875 L 274.136719 181.792969 C 276.054688 181.699219 278.082031 181.746094 280.210938 181.972656 L 284.636719 225.378906 C 284.636719 225.378906 226.332031 212.265625 194.28125 232.382812 C 194.28125 232.382812 229.617188 220.003906 291.890625 232.761719 L 286.75 172.859375 " fill-opacity="1" fill-rule="nonzero" style="fill: rgb(255, 148, 0);"/>
      </g>
    </g>
  </g>
  <g clip-path="url(#143a4c48b3)" transform="matrix(1.6549780368804932, 0, 0, 1.7649729251861572, -1.5873999832183188, 101.8144699009429)" style="">
    <g clip-path="url(#661d317510)">
      <g clip-path="url(#8f4b2aa317)">
        <path d="M 199.484375 218.640625 C 199.484375 218.640625 223.839844 199.269531 259.917969 205.976562 L 254.777344 146.070312 C 254.777344 146.070312 227.65625 149.328125 220.464844 163.21875 C 220.464844 163.21875 231.15625 153.355469 248.234375 155.1875 L 252.664062 198.59375 C 252.664062 198.59375 217.777344 197.363281 199.484375 218.640625 " fill-opacity="1" fill-rule="nonzero" style="fill: rgb(255, 148, 0);"/>
      </g>
    </g>
  </g>
  <g clip-path="url(#7224b5171f)" transform="matrix(1.6549780368804932, 0, 0, 1.7649729251861572, -1.5873999832183188, 101.8144699009429)" style="">
    <g clip-path="url(#4c669719b1)">
      <g clip-path="url(#8c1ee2d1d1)">
        <path d="M 98.945312 218.871094 L 104.34375 158.992188 C 104.34375 158.992188 110.355469 159.738281 117.457031 161.984375 L 116.917969 167.980469 C 115 167.878906 112.972656 167.914062 110.847656 168.132812 L 106.226562 211.519531 C 106.226562 211.519531 155.460938 206.066406 178.105469 226.324219 C 178.105469 226.324219 149.773438 209.148438 98.945312 218.871094 " fill-opacity="1" fill-rule="nonzero" style="fill: rgb(255, 126, 0);"/>
      </g>
    </g>
  </g>
  <g clip-path="url(#5b1fcb563c)" transform="matrix(1.6549780368804932, 0, 0, 1.7649729251861572, -1.5873999832183188, 101.8144699009429)" style="">
    <g clip-path="url(#ff209b1847)">
      <g clip-path="url(#90419b9278)">
        <path d="M 88.257812 172.714844 C 88.257812 172.714844 94.265625 173.464844 101.371094 175.710938 L 100.832031 181.707031 C 98.914062 181.605469 96.886719 181.640625 94.757812 181.859375 L 90.140625 225.246094 C 90.140625 225.246094 148.5 212.382812 180.46875 232.640625 C 180.46875 232.640625 145.183594 220.109375 82.855469 232.597656 L 88.257812 172.714844 " fill-opacity="1" fill-rule="nonzero" style="fill: rgb(255, 148, 0);"/>
      </g>
    </g>
  </g>
  <g clip-path="url(#92a446b44e)" transform="matrix(1.6549780368804932, 0, 0, 1.7649729251861572, -1.5873999832183188, 101.8144699009429)" style="">
    <g clip-path="url(#5102e3ca6c)">
      <g clip-path="url(#8740d4cf85)">
        <path d="M 175.324219 218.875 C 175.324219 218.875 151.050781 199.402344 114.945312 205.949219 L 120.347656 146.066406 C 120.347656 146.066406 147.453125 149.441406 154.582031 163.363281 C 154.582031 163.363281 143.9375 153.453125 126.847656 155.210938 L 122.230469 198.597656 C 122.230469 198.597656 157.121094 197.519531 175.324219 218.875 " fill-opacity="1" fill-rule="nonzero" style="fill: rgb(255, 148, 0);"/>
      </g>
    </g>
  </g>
  <g fill="#f9943b" fill-opacity="1" transform="matrix(1.6849749088287351, 0, 0, 2.8495450019836426, 362.11890188036705, -323.24390130108435)" style="">
    <g transform="translate(86.492807, 263.999983)">
      <g>
        <path d="M 8.140625 0.3125 C 6.703125 0.3125 5.3125 0.117188 3.96875 -0.265625 C 2.625 -0.660156 1.546875 -1.171875 0.734375 -1.796875 L 2.15625 -4.96875 C 2.9375 -4.394531 3.863281 -3.929688 4.9375 -3.578125 C 6.007812 -3.234375 7.082031 -3.0625 8.15625 -3.0625 C 9.351562 -3.0625 10.238281 -3.238281 10.8125 -3.59375 C 11.382812 -3.957031 11.671875 -4.429688 11.671875 -5.015625 C 11.671875 -5.453125 11.5 -5.8125 11.15625 -6.09375 C 10.820312 -6.382812 10.390625 -6.613281 9.859375 -6.78125 C 9.335938 -6.957031 8.625 -7.148438 7.71875 -7.359375 C 6.332031 -7.691406 5.195312 -8.019531 4.3125 -8.34375 C 3.425781 -8.675781 2.664062 -9.207031 2.03125 -9.9375 C 1.40625 -10.664062 1.09375 -11.632812 1.09375 -12.84375 C 1.09375 -13.90625 1.378906 -14.863281 1.953125 -15.71875 C 2.523438 -16.570312 3.382812 -17.25 4.53125 -17.75 C 5.6875 -18.257812 7.097656 -18.515625 8.765625 -18.515625 C 9.921875 -18.515625 11.050781 -18.375 12.15625 -18.09375 C 13.269531 -17.820312 14.242188 -17.425781 15.078125 -16.90625 L 13.78125 -13.703125 C 12.101562 -14.648438 10.421875 -15.125 8.734375 -15.125 C 7.554688 -15.125 6.6875 -14.929688 6.125 -14.546875 C 5.5625 -14.171875 5.28125 -13.671875 5.28125 -13.046875 C 5.28125 -12.421875 5.601562 -11.957031 6.25 -11.65625 C 6.90625 -11.351562 7.898438 -11.054688 9.234375 -10.765625 C 10.617188 -10.429688 11.753906 -10.097656 12.640625 -9.765625 C 13.523438 -9.441406 14.28125 -8.925781 14.90625 -8.21875 C 15.539062 -7.507812 15.859375 -6.546875 15.859375 -5.328125 C 15.859375 -4.285156 15.566406 -3.335938 14.984375 -2.484375 C 14.410156 -1.628906 13.539062 -0.945312 12.375 -0.4375 C 11.21875 0.0625 9.804688 0.3125 8.140625 0.3125 Z M 8.140625 0.3125 " style="fill: rgb(255, 126, 0);"/>
      </g>
    </g>
  </g>
  <g fill="#f9943b" fill-opacity="1" transform="matrix(1.6849749088287351, 0, 0, 2.8495450019836426, 362.11890188036705, -323.24390130108435)" style="">
    <g transform="translate(107.235849, 263.999983)">
      <g>
        <path d="M 10.96875 0.3125 C 9.082031 0.3125 7.378906 -0.09375 5.859375 -0.90625 C 4.347656 -1.71875 3.160156 -2.835938 2.296875 -4.265625 C 1.441406 -5.703125 1.015625 -7.3125 1.015625 -9.09375 C 1.015625 -10.882812 1.441406 -12.492188 2.296875 -13.921875 C 3.160156 -15.347656 4.347656 -16.46875 5.859375 -17.28125 C 7.378906 -18.101562 9.082031 -18.515625 10.96875 -18.515625 C 12.863281 -18.515625 14.5625 -18.101562 16.0625 -17.28125 C 17.570312 -16.46875 18.757812 -15.347656 19.625 -13.921875 C 20.5 -12.492188 20.9375 -10.882812 20.9375 -9.09375 C 20.9375 -7.3125 20.5 -5.703125 19.625 -4.265625 C 18.757812 -2.835938 17.570312 -1.71875 16.0625 -0.90625 C 14.5625 -0.09375 12.863281 0.3125 10.96875 0.3125 Z M 10.96875 -3.28125 C 12.039062 -3.28125 13.007812 -3.523438 13.875 -4.015625 C 14.75 -4.515625 15.429688 -5.203125 15.921875 -6.078125 C 16.421875 -6.960938 16.671875 -7.96875 16.671875 -9.09375 C 16.671875 -10.226562 16.421875 -11.234375 15.921875 -12.109375 C 15.429688 -12.992188 14.75 -13.679688 13.875 -14.171875 C 13.007812 -14.671875 12.039062 -14.921875 10.96875 -14.921875 C 9.894531 -14.921875 8.925781 -14.671875 8.0625 -14.171875 C 7.195312 -13.679688 6.515625 -12.992188 6.015625 -12.109375 C 5.523438 -11.234375 5.28125 -10.226562 5.28125 -9.09375 C 5.28125 -7.96875 5.523438 -6.960938 6.015625 -6.078125 C 6.515625 -5.203125 7.195312 -4.515625 8.0625 -4.015625 C 8.925781 -3.523438 9.894531 -3.28125 10.96875 -3.28125 Z M 10.96875 -3.28125 " style="fill: rgb(255, 126, 0);"/>
      </g>
    </g>
  </g>
  <g fill="#f9943b" fill-opacity="1" transform="matrix(1.6849749088287351, 0, 0, 2.8495450019836426, 362.11890188036705, -323.24390130108435)" style="">
    <g transform="translate(133.333283, 263.999983)">
      <g>
        <path d="M 10.875 0.3125 C 9.019531 0.3125 7.34375 -0.0859375 5.84375 -0.890625 C 4.34375 -1.703125 3.160156 -2.820312 2.296875 -4.25 C 1.441406 -5.675781 1.015625 -7.289062 1.015625 -9.09375 C 1.015625 -10.894531 1.441406 -12.507812 2.296875 -13.9375 C 3.160156 -15.375 4.34375 -16.492188 5.84375 -17.296875 C 7.34375 -18.109375 9.023438 -18.515625 10.890625 -18.515625 C 12.472656 -18.515625 13.898438 -18.234375 15.171875 -17.671875 C 16.441406 -17.117188 17.507812 -16.320312 18.375 -15.28125 L 15.671875 -12.796875 C 14.441406 -14.210938 12.921875 -14.921875 11.109375 -14.921875 C 9.972656 -14.921875 8.960938 -14.671875 8.078125 -14.171875 C 7.203125 -13.679688 6.515625 -12.992188 6.015625 -12.109375 C 5.523438 -11.234375 5.28125 -10.226562 5.28125 -9.09375 C 5.28125 -7.96875 5.523438 -6.960938 6.015625 -6.078125 C 6.515625 -5.203125 7.203125 -4.515625 8.078125 -4.015625 C 8.960938 -3.523438 9.972656 -3.28125 11.109375 -3.28125 C 12.921875 -3.28125 14.441406 -4 15.671875 -5.4375 L 18.375 -2.9375 C 17.507812 -1.882812 16.4375 -1.078125 15.15625 -0.515625 C 13.875 0.0351562 12.445312 0.3125 10.875 0.3125 Z M 10.875 0.3125 " style="fill: rgb(255, 126, 0);"/>
      </g>
    </g>
  </g>
  <g fill="#f9943b" fill-opacity="1" transform="matrix(1.6849749088287351, 0, 0, 2.8495450019836426, 362.11890188036705, -323.24390130108435)" style="">
    <g transform="translate(168.061373, 263.999983)">
      <g>
        <path d="M 15.515625 -9.46875 C 16.554688 -9.132812 17.367188 -8.582031 17.953125 -7.8125 C 18.546875 -7.039062 18.84375 -6.09375 18.84375 -4.96875 C 18.84375 -3.375 18.222656 -2.144531 16.984375 -1.28125 C 15.742188 -0.425781 13.9375 0 11.5625 0 L 2.15625 0 L 2.15625 -18.203125 L 11.046875 -18.203125 C 13.265625 -18.203125 14.96875 -17.773438 16.15625 -16.921875 C 17.34375 -16.078125 17.9375 -14.925781 17.9375 -13.46875 C 17.9375 -12.582031 17.722656 -11.789062 17.296875 -11.09375 C 16.878906 -10.40625 16.285156 -9.863281 15.515625 -9.46875 Z M 6.34375 -15.03125 L 6.34375 -10.734375 L 10.53125 -10.734375 C 11.570312 -10.734375 12.359375 -10.914062 12.890625 -11.28125 C 13.429688 -11.644531 13.703125 -12.179688 13.703125 -12.890625 C 13.703125 -13.609375 13.429688 -14.144531 12.890625 -14.5 C 12.359375 -14.851562 11.570312 -15.03125 10.53125 -15.03125 Z M 11.265625 -3.171875 C 12.367188 -3.171875 13.203125 -3.351562 13.765625 -3.71875 C 14.328125 -4.082031 14.609375 -4.644531 14.609375 -5.40625 C 14.609375 -6.914062 13.492188 -7.671875 11.265625 -7.671875 L 6.34375 -7.671875 L 6.34375 -3.171875 Z M 11.265625 -3.171875 " style="fill: rgb(255, 126, 0);"/>
      </g>
    </g>
  </g>
  <g fill="#f9943b" fill-opacity="1" transform="matrix(1.6849749088287351, 0, 0, 2.8495450019836426, 362.11890188036705, -323.24390130108435)" style="">
    <g transform="translate(192.105414, 263.999983)">
      <g>
        <path d="M 10.25 0.3125 C 7.644531 0.3125 5.617188 -0.40625 4.171875 -1.84375 C 2.722656 -3.28125 2 -5.335938 2 -8.015625 L 2 -18.203125 L 6.21875 -18.203125 L 6.21875 -8.15625 C 6.21875 -4.90625 7.566406 -3.28125 10.265625 -3.28125 C 11.585938 -3.28125 12.59375 -3.671875 13.28125 -4.453125 C 13.976562 -5.242188 14.328125 -6.476562 14.328125 -8.15625 L 14.328125 -18.203125 L 18.484375 -18.203125 L 18.484375 -8.015625 C 18.484375 -5.335938 17.757812 -3.28125 16.3125 -1.84375 C 14.863281 -0.40625 12.84375 0.3125 10.25 0.3125 Z M 10.25 0.3125 " style="fill: rgb(255, 126, 0);"/>
      </g>
    </g>
  </g>
  <g fill="#f9943b" fill-opacity="1" transform="matrix(1.6849749088287351, 0, 0, 2.8495450019836426, 362.11890188036705, -323.24390130108435)" style="">
    <g transform="translate(216.747289, 263.999983)">
      <g>
        <path d="M 2.15625 -18.203125 L 10.421875 -18.203125 C 12.398438 -18.203125 14.144531 -17.820312 15.65625 -17.0625 C 17.175781 -16.3125 18.359375 -15.25 19.203125 -13.875 C 20.046875 -12.507812 20.46875 -10.914062 20.46875 -9.09375 C 20.46875 -7.28125 20.046875 -5.6875 19.203125 -4.3125 C 18.359375 -2.945312 17.175781 -1.882812 15.65625 -1.125 C 14.144531 -0.375 12.398438 0 10.421875 0 L 2.15625 0 Z M 10.21875 -3.453125 C 12.039062 -3.453125 13.492188 -3.957031 14.578125 -4.96875 C 15.660156 -5.988281 16.203125 -7.363281 16.203125 -9.09375 C 16.203125 -10.832031 15.660156 -12.207031 14.578125 -13.21875 C 13.492188 -14.226562 12.039062 -14.734375 10.21875 -14.734375 L 6.375 -14.734375 L 6.375 -3.453125 Z M 10.21875 -3.453125 " style="fill: rgb(255, 126, 0);"/>
      </g>
    </g>
  </g>
  <g fill="#f9943b" fill-opacity="1" transform="matrix(1.6849749088287351, 0, 0, 2.8495450019836426, 362.11890188036705, -323.24390130108435)" style="">
    <g transform="translate(242.376868, 263.999983)">
      <g>
        <path d="M 2.15625 -18.203125 L 10.421875 -18.203125 C 12.398438 -18.203125 14.144531 -17.820312 15.65625 -17.0625 C 17.175781 -16.3125 18.359375 -15.25 19.203125 -13.875 C 20.046875 -12.507812 20.46875 -10.914062 20.46875 -9.09375 C 20.46875 -7.28125 20.046875 -5.6875 19.203125 -4.3125 C 18.359375 -2.945312 17.175781 -1.882812 15.65625 -1.125 C 14.144531 -0.375 12.398438 0 10.421875 0 L 2.15625 0 Z M 10.21875 -3.453125 C 12.039062 -3.453125 13.492188 -3.957031 14.578125 -4.96875 C 15.660156 -5.988281 16.203125 -7.363281 16.203125 -9.09375 C 16.203125 -10.832031 15.660156 -12.207031 14.578125 -13.21875 C 13.492188 -14.226562 12.039062 -14.734375 10.21875 -14.734375 L 6.375 -14.734375 L 6.375 -3.453125 Z M 10.21875 -3.453125 " style="fill: rgb(255, 126, 0);"/>
      </g>
    </g>
  </g>
  <g fill="#f9943b" fill-opacity="1" transform="matrix(1.6849749088287351, 0, 0, 2.8495450019836426, 361.1189018654659, -322.2439012861832)" style="">
    <g transform="translate(268.006448, 263.999983)">
      <g>
        <path d="M 10.890625 -6.453125 L 10.890625 0 L 6.6875 0 L 6.6875 -6.5 L -0.359375 -18.203125 L 4.109375 -18.203125 L 8.96875 -10.109375 L 13.828125 -18.203125 L 17.96875 -18.203125 Z M 10.890625 -6.453125 " style="fill: rgb(255, 126, 0);"/>
      </g>
    </g>
  </g>
  <g fill="#f9943b" fill-opacity="1" transform="matrix(1.635523080826, 0, 0, 3.527148962021, 434.373426284932, 200.380799065668)" style="transform-origin: 95.8589px 279.851px;">
    <g transform="translate(90.218243, 285.499413)">
      <g>
        <path d="M 11.234375 -11.296875 L 6.234375 0 L 5.046875 0 L 0.046875 -11.296875 L 1.34375 -11.296875 L 5.671875 -1.484375 L 10.015625 -11.296875 Z M 11.234375 -11.296875 " style="stroke-width: 8.91011px; fill: url('#gradient-14');"/>
      </g>
    </g>
  </g>
  <g fill="#f9943b" fill-opacity="1" transform="matrix(1.635523080826, 0, 0, 3.52714896202, 441.136668670999, 200.380799065825)" style="transform-origin: 106.501px 279.851px;">
    <g transform="translate(104.063536, 285.499413)">
      <g>
        <path d="M 1.84375 -11.296875 L 3.03125 -11.296875 L 3.03125 0 L 1.84375 0 Z M 1.84375 -11.296875 " style="stroke-width: 8.91011px; fill: url('#gradient-15');"/>
      </g>
    </g>
  </g>
  <g fill="#f9943b" fill-opacity="1" transform="matrix(1.635523080826, 0, 0, 3.527148962021, 448.362318856245, 200.380799065729)" style="transform-origin: 117.871px 279.851px;">
    <g transform="translate(111.519803, 285.499413)">
      <g>
        <path d="M 9.5625 0 L 6.96875 -3.625 C 6.675781 -3.59375 6.375 -3.578125 6.0625 -3.578125 L 3.03125 -3.578125 L 3.03125 0 L 1.84375 0 L 1.84375 -11.296875 L 6.0625 -11.296875 C 7.507812 -11.296875 8.640625 -10.953125 9.453125 -10.265625 C 10.273438 -9.578125 10.6875 -8.628906 10.6875 -7.421875 C 10.6875 -6.535156 10.460938 -5.789062 10.015625 -5.1875 C 9.566406 -4.582031 8.929688 -4.144531 8.109375 -3.875 L 10.859375 0 Z M 6.03125 -4.59375 C 7.15625 -4.59375 8.007812 -4.835938 8.59375 -5.328125 C 9.1875 -5.828125 9.484375 -6.523438 9.484375 -7.421875 C 9.484375 -8.335938 9.1875 -9.039062 8.59375 -9.53125 C 8.007812 -10.019531 7.15625 -10.265625 6.03125 -10.265625 L 3.03125 -10.265625 L 3.03125 -4.59375 Z M 6.03125 -4.59375 " style="stroke-width: 8.91011px; fill: url('#gradient-16');"/>
      </g>
    </g>
  </g>
  <g fill="#f9943b" fill-opacity="1" transform="matrix(1.635523080826, 0, 0, 3.527148962021, 456.325508987316, 200.380799065669)" style="transform-origin: 130.401px 279.851px;">
    <g transform="translate(125.768434, 285.499413)">
      <g>
        <path d="M 4.03125 -10.265625 L 0.0625 -10.265625 L 0.0625 -11.296875 L 9.203125 -11.296875 L 9.203125 -10.265625 L 5.234375 -10.265625 L 5.234375 0 L 4.03125 0 Z M 4.03125 -10.265625 " style="stroke-width: 8.91011px; fill: url('#gradient-17');"/>
      </g>
    </g>
  </g>
  <g fill="#f9943b" fill-opacity="1" transform="matrix(1.635523080826, 0, 0, 3.527148962021, 464.970872829379, 200.500055944312)" style="transform-origin: 144.004px 279.898px;">
    <g transform="translate(137.613119, 285.499413)">
      <g>
        <path d="M 6.390625 0.09375 C 4.929688 0.09375 3.789062 -0.320312 2.96875 -1.15625 C 2.15625 -2 1.75 -3.222656 1.75 -4.828125 L 1.75 -11.296875 L 2.9375 -11.296875 L 2.9375 -4.875 C 2.9375 -3.5625 3.234375 -2.582031 3.828125 -1.9375 C 4.421875 -1.289062 5.273438 -0.96875 6.390625 -0.96875 C 7.523438 -0.96875 8.382812 -1.289062 8.96875 -1.9375 C 9.5625 -2.582031 9.859375 -3.5625 9.859375 -4.875 L 9.859375 -11.296875 L 11.03125 -11.296875 L 11.03125 -4.828125 C 11.03125 -3.222656 10.625 -2 9.8125 -1.15625 C 9 -0.320312 7.859375 0.09375 6.390625 0.09375 Z M 6.390625 0.09375 " style="stroke-width: 8.91011px; fill: url('#gradient-18');"/>
      </g>
    </g>
  </g>
  <g fill="#f9943b" fill-opacity="1" transform="matrix(1.635523080826, 0, 0, 3.527148962021, 474.350925050482, 200.380799065662)" style="transform-origin: 158.764px 279.851px;">
    <g transform="translate(152.974998, 285.499413)">
      <g>
        <path d="M 8.921875 -3.015625 L 2.625 -3.015625 L 1.28125 0 L 0.03125 0 L 5.203125 -11.296875 L 6.375 -11.296875 L 11.546875 0 L 10.28125 0 Z M 8.484375 -3.984375 L 5.78125 -10.0625 L 3.0625 -3.984375 Z M 8.484375 -3.984375 " style="stroke-width: 8.91011px; fill: url('#gradient-19');"/>
      </g>
    </g>
  </g>
  <g fill="#f9943b" fill-opacity="1" transform="matrix(1.635523080826, 0, 0, 3.527148962021, 483.225108686182, 200.380799065712)" style="transform-origin: 172.728px 279.851px;">
    <g transform="translate(167.126833, 285.499413)">
      <g>
        <path d="M 1.84375 -11.296875 L 3.03125 -11.296875 L 3.03125 -1.03125 L 9.359375 -1.03125 L 9.359375 0 L 1.84375 0 Z M 1.84375 -11.296875 " style="stroke-width: 8.91011px; fill: url('#gradient-20');"/>
      </g>
    </g>
  </g>
  <g fill="#f9943b" fill-opacity="1" transform="matrix(1.635523080826, 0, 0, 3.527148962021, 494.833099654855, 200.380799065739)" style="transform-origin: 190.993px 279.851px;">
    <g transform="translate(186.024432, 285.499413)">
      <g>
        <path d="M 4.953125 0.09375 C 4.117188 0.09375 3.316406 -0.0351562 2.546875 -0.296875 C 1.773438 -0.566406 1.179688 -0.925781 0.765625 -1.375 L 1.234375 -2.296875 C 1.640625 -1.878906 2.179688 -1.546875 2.859375 -1.296875 C 3.535156 -1.046875 4.234375 -0.921875 4.953125 -0.921875 C 5.960938 -0.921875 6.71875 -1.101562 7.21875 -1.46875 C 7.726562 -1.84375 7.984375 -2.328125 7.984375 -2.921875 C 7.984375 -3.367188 7.847656 -3.726562 7.578125 -4 C 7.304688 -4.269531 6.96875 -4.476562 6.5625 -4.625 C 6.164062 -4.769531 5.613281 -4.925781 4.90625 -5.09375 C 4.050781 -5.3125 3.367188 -5.519531 2.859375 -5.71875 C 2.359375 -5.914062 1.925781 -6.21875 1.5625 -6.625 C 1.207031 -7.039062 1.03125 -7.597656 1.03125 -8.296875 C 1.03125 -8.867188 1.179688 -9.390625 1.484375 -9.859375 C 1.785156 -10.328125 2.25 -10.695312 2.875 -10.96875 C 3.5 -11.25 4.273438 -11.390625 5.203125 -11.390625 C 5.847656 -11.390625 6.476562 -11.300781 7.09375 -11.125 C 7.707031 -10.945312 8.242188 -10.703125 8.703125 -10.390625 L 8.296875 -9.4375 C 7.828125 -9.75 7.320312 -9.984375 6.78125 -10.140625 C 6.238281 -10.296875 5.710938 -10.375 5.203125 -10.375 C 4.210938 -10.375 3.46875 -10.179688 2.96875 -9.796875 C 2.46875 -9.421875 2.21875 -8.929688 2.21875 -8.328125 C 2.21875 -7.878906 2.351562 -7.515625 2.625 -7.234375 C 2.894531 -6.960938 3.238281 -6.753906 3.65625 -6.609375 C 4.070312 -6.460938 4.628906 -6.304688 5.328125 -6.140625 C 6.148438 -5.929688 6.816406 -5.726562 7.328125 -5.53125 C 7.847656 -5.332031 8.285156 -5.03125 8.640625 -4.625 C 8.992188 -4.21875 9.171875 -3.671875 9.171875 -2.984375 C 9.171875 -2.410156 9.015625 -1.890625 8.703125 -1.421875 C 8.398438 -0.953125 7.929688 -0.582031 7.296875 -0.3125 C 6.660156 -0.0390625 5.878906 0.09375 4.953125 0.09375 Z M 4.953125 0.09375 " style="stroke-width: 8.91011px; fill: url('#gradient-21');"/>
      </g>
    </g>
  </g>
  <g fill="#f9943b" fill-opacity="1" transform="matrix(1.635523080826, 0, 0, 3.527148962021, 503.684579312676, 200.500055944321)" style="transform-origin: 204.921px 279.898px;">
    <g transform="translate(198.530609, 285.499413)">
      <g>
        <path d="M 6.390625 0.09375 C 4.929688 0.09375 3.789062 -0.320312 2.96875 -1.15625 C 2.15625 -2 1.75 -3.222656 1.75 -4.828125 L 1.75 -11.296875 L 2.9375 -11.296875 L 2.9375 -4.875 C 2.9375 -3.5625 3.234375 -2.582031 3.828125 -1.9375 C 4.421875 -1.289062 5.273438 -0.96875 6.390625 -0.96875 C 7.523438 -0.96875 8.382812 -1.289062 8.96875 -1.9375 C 9.5625 -2.582031 9.859375 -3.5625 9.859375 -4.875 L 9.859375 -11.296875 L 11.03125 -11.296875 L 11.03125 -4.828125 C 11.03125 -3.222656 10.625 -2 9.8125 -1.15625 C 9 -0.320312 7.859375 0.09375 6.390625 0.09375 Z M 6.390625 0.09375 " style="stroke-width: 8.91011px; fill: url('#gradient-22');"/>
      </g>
    </g>
  </g>
  <g fill="#f9943b" fill-opacity="1" transform="matrix(1.635523080826, 0, 0, 3.527148962021, 513.368105220083, 200.380799065742)" style="transform-origin: 220.158px 279.851px;">
    <g transform="translate(213.892488, 285.499413)">
      <g>
        <path d="M 6.0625 -11.296875 C 7.507812 -11.296875 8.640625 -10.953125 9.453125 -10.265625 C 10.273438 -9.578125 10.6875 -8.628906 10.6875 -7.421875 C 10.6875 -6.210938 10.273438 -5.265625 9.453125 -4.578125 C 8.640625 -3.898438 7.507812 -3.5625 6.0625 -3.5625 L 3.03125 -3.5625 L 3.03125 0 L 1.84375 0 L 1.84375 -11.296875 Z M 6.03125 -4.609375 C 7.15625 -4.609375 8.007812 -4.851562 8.59375 -5.34375 C 9.1875 -5.832031 9.484375 -6.523438 9.484375 -7.421875 C 9.484375 -8.335938 9.1875 -9.039062 8.59375 -9.53125 C 8.007812 -10.019531 7.15625 -10.265625 6.03125 -10.265625 L 3.03125 -10.265625 L 3.03125 -4.609375 Z M 6.03125 -4.609375 " style="stroke-width: 8.91011px; fill: url('#gradient-23');"/>
      </g>
    </g>
  </g>
  <g fill="#f9943b" fill-opacity="1" transform="matrix(1.635523080826, 0, 0, 3.527148962021, 522.37225679887, 200.380799065686)" style="transform-origin: 234.326px 279.851px;">
    <g transform="translate(228.060455, 285.499413)">
      <g>
        <path d="M 6.0625 -11.296875 C 7.507812 -11.296875 8.640625 -10.953125 9.453125 -10.265625 C 10.273438 -9.578125 10.6875 -8.628906 10.6875 -7.421875 C 10.6875 -6.210938 10.273438 -5.265625 9.453125 -4.578125 C 8.640625 -3.898438 7.507812 -3.5625 6.0625 -3.5625 L 3.03125 -3.5625 L 3.03125 0 L 1.84375 0 L 1.84375 -11.296875 Z M 6.03125 -4.609375 C 7.15625 -4.609375 8.007812 -4.851562 8.59375 -5.34375 C 9.1875 -5.832031 9.484375 -6.523438 9.484375 -7.421875 C 9.484375 -8.335938 9.1875 -9.039062 8.59375 -9.53125 C 8.007812 -10.019531 7.15625 -10.265625 6.03125 -10.265625 L 3.03125 -10.265625 L 3.03125 -4.609375 Z M 6.03125 -4.609375 " style="stroke-width: 8.91011px; fill: url('#gradient-24');"/>
      </g>
    </g>
  </g>
  <g fill="#f9943b" fill-opacity="1" transform="matrix(1.635523080826, 0, 0, 3.527148962021, 531.699342862695, 200.380799065735)" style="transform-origin: 249.002px 279.851px;">
    <g transform="translate(242.228423, 285.499413)">
      <g>
        <path d="M 6.78125 0.09375 C 5.65625 0.09375 4.640625 -0.15625 3.734375 -0.65625 C 2.828125 -1.15625 2.117188 -1.835938 1.609375 -2.703125 C 1.097656 -3.578125 0.84375 -4.5625 0.84375 -5.65625 C 0.84375 -6.738281 1.097656 -7.710938 1.609375 -8.578125 C 2.117188 -9.453125 2.828125 -10.140625 3.734375 -10.640625 C 4.640625 -11.140625 5.65625 -11.390625 6.78125 -11.390625 C 7.894531 -11.390625 8.898438 -11.140625 9.796875 -10.640625 C 10.703125 -10.148438 11.410156 -9.46875 11.921875 -8.59375 C 12.441406 -7.71875 12.703125 -6.738281 12.703125 -5.65625 C 12.703125 -4.5625 12.441406 -3.578125 11.921875 -2.703125 C 11.410156 -1.828125 10.703125 -1.140625 9.796875 -0.640625 C 8.898438 -0.148438 7.894531 0.09375 6.78125 0.09375 Z M 6.78125 -0.96875 C 7.675781 -0.96875 8.484375 -1.164062 9.203125 -1.5625 C 9.921875 -1.96875 10.484375 -2.53125 10.890625 -3.25 C 11.304688 -3.96875 11.515625 -4.769531 11.515625 -5.65625 C 11.515625 -6.53125 11.304688 -7.328125 10.890625 -8.046875 C 10.484375 -8.765625 9.921875 -9.320312 9.203125 -9.71875 C 8.484375 -10.125 7.675781 -10.328125 6.78125 -10.328125 C 5.882812 -10.328125 5.070312 -10.125 4.34375 -9.71875 C 3.625 -9.320312 3.054688 -8.765625 2.640625 -8.046875 C 2.222656 -7.328125 2.015625 -6.53125 2.015625 -5.65625 C 2.015625 -4.769531 2.222656 -3.96875 2.640625 -3.25 C 3.054688 -2.53125 3.625 -1.96875 4.34375 -1.5625 C 5.070312 -1.164062 5.882812 -0.96875 6.78125 -0.96875 Z M 6.78125 -0.96875 " style="stroke-width: 8.91011px; fill: url('#gradient-25');"/>
      </g>
    </g>
  </g>
  <g fill="#f9943b" fill-opacity="1" transform="matrix(1.635523080826, 0, 0, 3.527148962021, 541.675548500988, 200.380799065711)" style="transform-origin: 264.7px 279.851px;">
    <g transform="translate(258.348599, 285.499413)">
      <g>
        <path d="M 9.5625 0 L 6.96875 -3.625 C 6.675781 -3.59375 6.375 -3.578125 6.0625 -3.578125 L 3.03125 -3.578125 L 3.03125 0 L 1.84375 0 L 1.84375 -11.296875 L 6.0625 -11.296875 C 7.507812 -11.296875 8.640625 -10.953125 9.453125 -10.265625 C 10.273438 -9.578125 10.6875 -8.628906 10.6875 -7.421875 C 10.6875 -6.535156 10.460938 -5.789062 10.015625 -5.1875 C 9.566406 -4.582031 8.929688 -4.144531 8.109375 -3.875 L 10.859375 0 Z M 6.03125 -4.59375 C 7.15625 -4.59375 8.007812 -4.835938 8.59375 -5.328125 C 9.1875 -5.828125 9.484375 -6.523438 9.484375 -7.421875 C 9.484375 -8.335938 9.1875 -9.039062 8.59375 -9.53125 C 8.007812 -10.019531 7.15625 -10.265625 6.03125 -10.265625 L 3.03125 -10.265625 L 3.03125 -4.59375 Z M 6.03125 -4.59375 " style="stroke-width: 8.91011px; fill: url('#gradient-26');"/>
      </g>
    </g>
  </g>
  <g fill="#f9943b" fill-opacity="1" transform="matrix(1.635523080826, 0, 0, 3.527148962021, 549.638743480644, 200.380799065633)" style="transform-origin: 277.23px 279.851px;">
    <g transform="translate(272.597232, 285.499413)">
      <g>
        <path d="M 4.03125 -10.265625 L 0.0625 -10.265625 L 0.0625 -11.296875 L 9.203125 -11.296875 L 9.203125 -10.265625 L 5.234375 -10.265625 L 5.234375 0 L 4.03125 0 Z M 4.03125 -10.265625 " style="stroke-width: 8.91011px; fill: url('#gradient-27');"/>
      </g>
    </g>
  </g>
</svg>